<?xml version="1.0" encoding="utf-8"?>
<!-- Generator: Adobe Illustrator 21.0.0, SVG Export Plug-In . SVG Version: 6.00 Build 0)  -->
<svg version="1.1" id="Layer_1" xmlns="http://www.w3.org/2000/svg" xmlns:xlink="http://www.w3.org/1999/xlink" x="0px" y="0px"
	 viewBox="0 0 30 30" style="enable-background:new 0 0 30 30;" xml:space="preserve">
<path d="M26.7,7h-4.6V4.5c0-2.5-2-4.5-4.5-4.5h-5.3C9.9,0,7.9,2,7.9,4.5V7H3.6L0.7,30h28.6L26.7,7z M8.9,4.5c0-1.9,1.6-3.5,3.5-3.5
	h5.3c1.9,0,3.5,1.6,3.5,3.5V7H8.9V4.5z M4.5,7.9h3.4v4.2h1V7.9h12.3v4.2h1V7.9h3.7L28.2,29H1.8L4.5,7.9z"/>
</svg>
