<?xml version="1.0" encoding="utf-8"?>
<!-- Generator: Adobe Illustrator 21.0.0, SVG Export Plug-In . SVG Version: 6.00 Build 0)  -->
<svg version="1.1" id="Layer_1" xmlns="http://www.w3.org/2000/svg" xmlns:xlink="http://www.w3.org/1999/xlink" x="0px" y="0px"
	 viewBox="0 0 20 21.6" style="enable-background:new 0 0 20 21.6;" xml:space="preserve">
<style type="text/css">
	.st0{fill:#848484;}
</style>
<g>
	<path class="st0" d="M16.1,18.4c0,0.8-0.7,1.5-1.5,1.5H5.4c-0.8,0-1.5-0.7-1.5-1.5V6.9h-1v11.5c0,1.4,1.1,2.5,2.5,2.5h9.1
		c1.4,0,2.5-1.1,2.5-2.5V6.9h-1V18.4z"/>
	<rect x="7" y="6.9" class="st0" width="1" height="10.3"/>
	<rect x="12" y="6.9" class="st0" width="1" height="10.3"/>
	<rect x="1" y="5" class="st0" width="18.1" height="1"/>
	<path class="st0" d="M5.3,2c0-0.1,0.4-0.3,1.1-0.3h7.2c0.7,0,1,0.3,1.1,0.3v2h1V2c0-0.8-0.9-1.3-2.1-1.3H6.4C5.2,0.7,4.3,1.3,4.3,2
		v2h1L5.3,2z"/>
</g>
</svg>
