<?xml version="1.0" encoding="utf-8"?>
<!-- Generator: Adobe Illustrator 21.0.0, SVG Export Plug-In . SVG Version: 6.00 Build 0)  -->
<svg version="1.1" id="Layer_1" xmlns="http://www.w3.org/2000/svg" xmlns:xlink="http://www.w3.org/1999/xlink" x="0px" y="0px"
	 viewBox="0 0 36.6 15.6" style="enable-background:new 0 0 36.6 15.6;" xml:space="preserve">
<path d="M21.9,0.5l-1.9,0c-2.1,0-3.5,1.4-3.5,3.6v1.7h-1.9c-0.2,0-0.3,0.1-0.3,0.3v2.4c0,0.2,0.1,0.3,0.3,0.3h1.9v6.1
	c0,0.2,0.1,0.3,0.3,0.3h2.5c0.2,0,0.3-0.1,0.3-0.3V8.7h2.2c0.2,0,0.3-0.1,0.3-0.3l0-2.4c0-0.1,0-0.2-0.1-0.2
	c-0.1-0.1-0.1-0.1-0.2-0.1h-2.2V4.3c0-0.7,0.2-1,1-1h1.3c0.2,0,0.3-0.1,0.3-0.3V0.8C22.2,0.6,22.1,0.5,21.9,0.5"/>
</svg>
