<?xml version="1.0" encoding="utf-8"?>
<!-- Generator: Adobe Illustrator 21.0.0, SVG Export Plug-In . SVG Version: 6.00 Build 0)  -->
<svg version="1.1" id="Layer_1" xmlns="http://www.w3.org/2000/svg" xmlns:xlink="http://www.w3.org/1999/xlink" x="0px" y="0px"
	 viewBox="0 0 36.6 15.6" style="enable-background:new 0 0 36.6 15.6;" xml:space="preserve">
<path d="M23.8,0.5H12.8c-1,0-1.8,0.9-1.8,1.8v11.1c0,1,0.8,1.6,1.8,1.6h11.1c1,0,1.7-0.7,1.7-1.6V2.4C25.6,1.4,24.8,0.5,23.8,0.5z
	 M18.3,5.1c1.5,0,2.8,1.2,2.8,2.8s-1.3,2.8-2.8,2.8s-2.8-1.2-2.8-2.8S16.8,5.1,18.3,5.1z M24,13.1c0,0.2-0.2,0.4-0.5,0.4H13.1
	c-0.2,0-0.5-0.2-0.5-0.4V6.8h1.5c-0.1,0.5-0.2,0.8-0.2,1.2c0,2.4,2,4.4,4.4,4.4s4.4-2,4.4-4.4c0-0.4-0.1-0.6-0.2-1.2H24V13.1z
	 M24,4.7c0,0.3-0.2,0.5-0.5,0.5h-1.6c-0.3,0-0.5-0.2-0.5-0.5V3.1c0-0.3,0.2-0.5,0.5-0.5h1.6c0.3,0,0.5,0.2,0.5,0.5V4.7z"/>
</svg>
