<?xml version="1.0" encoding="utf-8"?>
<!-- Generator: Adobe Illustrator 21.0.0, SVG Export Plug-In . SVG Version: 6.00 Build 0)  -->
<svg version="1.1" id="Layer_1" xmlns="http://www.w3.org/2000/svg" xmlns:xlink="http://www.w3.org/1999/xlink" x="0px" y="0px"
	 viewBox="0 0 80 80" style="enable-background:new 0 0 80 80;" xml:space="preserve">
<style type="text/css">
	.st0{fill:none;stroke:#00DFE9;stroke-width:2;stroke-miterlimit:10;}
</style>
<path class="st0" d="M-397.3-166.7c0,0-0.2-1.1,0.3-2.1c0.9-2,6.7-13.7,6.7-13.7l-1.5,13.5l6.9-13.5l-2.4,13.9l1.4-0.7"/>
<path class="st0" d="M-368.7-126c-0.8,0.2-1.4-0.7-1.4-0.7l-4.5-13.4c0-0.1-0.3-1.9-0.3-2.1l-0.1-1.7l5.8,3.7l2.8,1.8
	c0,0,1-1.5,0.4-2.2"/>
<line class="st0" x1="-372.7" y1="-134.8" x2="-369" y2="-140"/>
<path class="st0" d="M-423.5-138.8c0,0,5.7-2.1,6,1.5c0.3,3.6-0.6,6.1,0.7,6.9c1.2,0.8,3.3-0.6,3.3-0.6"/>
<path class="st0" d="M-417.9-136.1c-1,0-3.2-1.5-3.1-2.7"/>
<path class="st0" d="M-421-139.8c-0.1-3.4,3.1-4.7,5.5-5.3c2.5-0.6,4.7,0.6,4.7,0.6l1,0.8c0,0,2.4,2.5,0.2,4.6
	c-2.7,2.7-3.3,2.7-4.7,3.1c-0.5,0.1-2.4,0-2.6,0"/>
<line class="st0" x1="-397.1" y1="-126.4" x2="-392.4" y2="-133.5"/>
<line class="st0" x1="-396.6" y1="-133.8" x2="-393" y2="-126.1"/>
<line class="st0" x1="-390.5" y1="-130" x2="-399" y2="-130"/>
<line class="st0" x1="-374" y1="-161.3" x2="-369.3" y2="-168.3"/>
<line class="st0" x1="-373.4" y1="-168.7" x2="-369.8" y2="-161"/>
<line class="st0" x1="-367.4" y1="-164.8" x2="-375.9" y2="-164.8"/>
<line class="st0" x1="-395.6" y1="-148" x2="-390.9" y2="-155"/>
<line class="st0" x1="-395.1" y1="-155.3" x2="-391.4" y2="-147.6"/>
<line class="st0" x1="-389" y1="-151.5" x2="-397.5" y2="-151.5"/>
<line class="st0" x1="-415.2" y1="-160" x2="-410.5" y2="-167.1"/>
<line class="st0" x1="-414.6" y1="-167.4" x2="-411" y2="-159.7"/>
<line class="st0" x1="-408.6" y1="-163.6" x2="-417.1" y2="-163.6"/>
<g>
	<path d="M36.6,26.3c0-0.1-0.2-1.4,0.3-2.6c1-2.2,7.1-14.7,7.4-15.2l1.3-2.6L43.9,21l7.9-15.4l-3,17.6l0.7-0.3l0.4,0.9L47.5,25
		l2.2-13.2l-7.5,14.5l1.7-14.8c-1.9,3.9-5.4,11-6.1,12.6c-0.4,1-0.3,2-0.3,2L36.6,26.3z"/>
</g>
<path d="M72.2,54.8l-0.8,0.6c0.2,0.2,0,0.9-0.3,1.4l-9.9-6.4l0.1,2.9c0,0,0.2,2.2,0.3,2.4l5,14.9l0.1,0.1c0.3,0.4,0.9,1,1.7,1
	c0.1,0,0.3,0,0.4-0.1l-0.3-1c-0.4,0.1-0.8-0.3-1-0.5l-2.9-8.5l3.8-5.4l2.9,1.9l0.3-0.4C72,57.5,73,55.8,72.2,54.8z M64.4,60.6
	l-1.7-5.1c0-0.2-0.3-2-0.3-2.2l0-1l5.4,3.5L64.4,60.6z"/>
<g>
	<path d="M16.4,67.3c-0.5,0-0.9-0.1-1.3-0.4c-1.1-0.7-1.1-2.2-1-4.3c0-1.1,0.1-2.4,0-3.8c-0.1-0.7-0.3-1.2-0.8-1.5
		c-1.4-0.9-4.2-0.1-5.2,0.2l-0.3-0.9c0.2-0.1,4-1.4,6-0.1c0.7,0.5,1.2,1.2,1.2,2.2c0.1,1.5,0.1,2.8,0,3.9c-0.1,1.7-0.1,3,0.5,3.4
		c0.9,0.6,2.6-0.2,3.1-0.6l0.6,0.8C19.3,66.4,17.8,67.3,16.4,67.3z"/>
</g>
<g>
	<path d="M14,60.6c-0.9,0-2.2-0.8-2.9-1.6c-0.6-0.6-0.8-1.2-0.8-1.7l1,0.1c0,0.3,0.2,0.6,0.5,1c0.7,0.7,1.7,1.3,2.2,1.3V60.6z"/>
</g>
<g>
	<path d="M17.4,60.8c-0.5,0-1,0-1.6,0c-0.2,0-0.3,0-0.4,0v-1c0.1,0,0.2,0,0.5,0c0.6,0,2,0.1,2.4,0l0.3-0.1c1.4-0.3,2-0.5,4.7-3.2
		c2-2-0.1-4.4-0.2-4.5l-1.1-0.8c0,0,0,0,0,0c0,0-2.3-1.1-4.8-0.5c-3.2,0.7-6.1,1.6-6,4.8l-1,0c-0.1-4.3,4.2-5.2,6.8-5.8
		c2.9-0.6,5.5,0.6,5.6,0.7l1.2,0.9c1.1,1.1,2.4,3.8,0.3,5.9c-2.8,2.8-3.6,3.1-5.2,3.5l-0.3,0.1C18.2,60.7,17.8,60.8,17.4,60.8z"/>
</g>
<polygon points="44.5,66.4 40.8,66.4 42.9,63.2 42,62.7 39.9,65.9 38.3,62.4 37.4,62.8 39,66.4 35.1,66.4 35.1,67.4 38.9,67.4 
	36.8,70.5 37.6,71.1 39.8,67.9 41.4,71.4 42.3,70.9 40.6,67.4 44.5,67.4 "/>
<polygon points="70.2,27.8 66.4,27.8 68.5,24.7 67.7,24.1 65.6,27.3 64,23.8 63.1,24.2 64.7,27.8 60.8,27.8 60.8,28.8 64.6,28.8 
	62.5,31.9 63.3,32.5 65.4,29.3 67.1,32.8 68,32.4 66.3,28.8 70.2,28.8 "/>
<polygon points="46.2,42.6 42.5,42.6 44.5,39.4 43.7,38.9 41.6,42 40,38.6 39.1,39 40.7,42.6 36.8,42.6 36.8,43.6 40.6,43.6 
	38.5,46.7 39.3,47.3 41.4,44.1 43.1,47.5 44,47.1 42.3,43.6 46.2,43.6 "/>
<polygon points="24.6,29.2 20.8,29.2 22.9,26 22,25.5 19.9,28.7 18.3,25.2 17.4,25.6 19.1,29.2 15.1,29.2 15.1,30.2 18.9,30.2 
	16.8,33.3 17.6,33.9 19.8,30.7 21.4,34.2 22.3,33.7 20.6,30.2 24.6,30.2 "/>
</svg>
