<?xml version="1.0" encoding="utf-8"?>
<!-- Generator: Adobe Illustrator 21.0.0, SVG Export Plug-In . SVG Version: 6.00 Build 0)  -->
<svg version="1.1" id="Layer_1" xmlns="http://www.w3.org/2000/svg" xmlns:xlink="http://www.w3.org/1999/xlink" x="0px" y="0px"
	 viewBox="0 0 36.6 15.6" style="enable-background:new 0 0 36.6 15.6;" xml:space="preserve">
<path d="M17.6,2.3v12.8h13.8v0c2.9-0.2,4.2-2,4.2-4.2c0-2.3-1.8-4.2-4.1-4.2c-0.6,0-1.1,0.1-1.6,0.4c-0.4-3.7-3.5-6.6-7.3-6.6
	C20.6,0.5,18.9,1.2,17.6,2.3 M16.2,3.9c-0.5-0.3-1-0.5-1.5-0.6v11.8h2.2v-12C16.6,3.3,16.4,3.6,16.2,3.9 M12.5,3.1v12H14v-12
	c-0.3,0-0.6-0.1-0.9-0.1C12.9,3.1,12.7,3.1,12.5,3.1 M9.6,4.1v11h1.4V3.4C10.6,3.6,10.1,3.8,9.6,4.1 M7,8.1C6.9,8,6.8,7.9,6.7,7.9
	v7.2h1.4V5.4C7.6,6.2,7.2,7.1,7,8.1 M3.8,7.6v7.4c0.3,0.1,0.7,0.1,1.1,0.1h0.4V7.5c-0.1,0-0.3,0-0.4,0C4.5,7.4,4.2,7.5,3.8,7.6
	 M1,11.3c0,1.2,0.5,2.2,1.4,2.9V8.3C1.5,9.1,1,10.1,1,11.3"/>
</svg>
