<?xml version="1.0" encoding="utf-8"?>
<!-- Generator: Adobe Illustrator 21.0.0, SVG Export Plug-In . SVG Version: 6.00 Build 0)  -->
<svg version="1.1" id="Layer_1" xmlns="http://www.w3.org/2000/svg" xmlns:xlink="http://www.w3.org/1999/xlink" x="0px" y="0px"
	 viewBox="0 0 88.2 90.9" style="enable-background:new 0 0 88.2 90.9;" xml:space="preserve">
<style type="text/css">
	.st0{fill:#1D1D1D;}
</style>
<g>
	<path class="st0" d="M78.9,15.1c-0.4,0.1-0.8,0.5-1.3,0.8C78.1,15.8,78.5,15.5,78.9,15.1z"/>
	<path class="st0" d="M77.6,15.9L77.6,15.9L77.6,15.9C77.6,15.9,77.6,15.9,77.6,15.9z"/>
	<path class="st0" d="M2,54.4c0.1,0.1,0.2,0.2,0.3,0.3C2.2,54.6,2.1,54.5,2,54.4z"/>
	<path class="st0" d="M58.3,34.2l0.2,0.3c-0.9,0.9-0.6-0.1-1.4,0.9c0.1,0.7-1.5,1.4-1.5,1.9c0,0-0.5,0.4-0.6,0.2
		c0.1,0.3-0.4,0.5-0.6,0.8c0,0.2,0.1,0,0.3,0L54.2,39c-0.3,0.2-0.5,0.1-0.3-0.2c-1.7,1.5-9.4,8.8-11,10.6c0.4-0.1,0.8-0.7,1.3-0.6
		c-0.3,0.6-0.7,0.6-0.8,1c-0.6-0.2-1.1,0.9-1.8,0.8l0.1,0.3l-0.4,0.1c-1.7,2.2-0.3,0.6-2.1,2.3c-1,1-1.2,1.8-1.8,2.3
		c0.1-0.1,0.4-0.2,0.2,0.1c-0.2-0.1-0.6,0.8-0.9,0.8c-0.2,0.3-1.1,1.1-0.5,1.1c-0.3,0-1.1,0.7-0.7,0.1c-0.3,0.2-0.5,0.4-0.7,0.7
		l0.4-0.2c-0.8,0.9-1.5,1.1-1.8,1.9l0.4-0.2c-0.5,0.5-0.9,1-1.3,0.9l0.4-0.6c-0.8,0.8-1.3,1.4-1.9,2.2l0.3-0.2
		c-0.2,0.3-0.6,0.8-1.1,1.4c-0.3,0.3-0.5,0.7-0.8,1l-0.2,0.3c-0.1,0.1-0.2,0.2-0.2,0.2L29,65.2c-0.2,0.4-0.5,1.1-0.7,1.5
		c0,0.1,0.1,0.2,0.2,0.2l-0.3,0.6c0,0,0.1-1.4,0.1-1.3c0,0-0.1,0.1-0.2,0.2c-0.2-0.1-0.4-0.4-0.7-0.6c-0.1-0.1-0.3-0.3-0.5-0.4
		L26.5,65l-0.8-0.8c-2.1-2.1-4.1-4.1-4.7-4.8c-0.5-0.7,0.2-0.4,0.3-0.4c-0.8-0.6-0.5-0.1-1.1-0.7c-0.1-0.2,0.2-0.1,0.3-0.1
		c-0.3-0.2-0.4-0.5-0.6-0.5c0.2,0.4-0.1,0.5-0.2,0.8L19,57.8l0.2-0.1c-0.2-0.2-0.9,0-1.5-0.8c-1.2-1.3-2.6-2.6-3.8-3.9
		c0.1-0.1,0.4,0.1,0.7,0.3c-0.2-0.2-0.4-0.4-0.5-0.6c0.1,0.5-0.6-0.4-0.5-0.1c-1.3-0.5-2.1-2.1-3.2-2.6c-0.4,0.3-7.6,4.2-8.1,4.6
		C2.2,54.3,2,54,1.9,53.9c0,0.2,0.4,0.7,0.7,0.9l0.3-0.2c0.7,0.5,0,0.3,0.6,0.8c-0.1,0.2-0.7-0.3-1.2-0.8c0.4,0.4,0.7,1,1.1,1
		c0.3,0.5-0.3,0.2,0.1,0.7c0.4,0.3,1,0.6,1.3,1.1l0,0c0.8,1.2,1.8,1.2,2.4,2.3l-0.2,0c0.2,0.4,1,0.9,1.4,1.6
		c-0.1-0.2-0.1-0.5,0.2-0.1c0.5,0.8,1.1,1.1,1.4,1.7l0.6,0.3c1.1,1.1,3.9,3.9,6.8,6.6c0.7,0.7,1.4,1.4,2.1,2C20.8,72.9,22,74,23,75
		c2.2,2.2,4.1,4,5.2,5.1c0,0,0,0,0,0l0,0L28,80c0,0,0.1,0.1,0.1,0.1c2.6-2.7,6.6-6.7,10.6-10.8c2.6-2.7,5.2-5.4,6.8-7.3
		c0.7-0.4,1.4-1.2,2.1-1.7c-0.4,0.2-0.4,0-0.1-0.2c1.8-1.7,0-0.2,1.7-2.1c1.9-2.2,9.9-9.8,11.8-11.5c0.7-1.2,2.1-2.2,2.9-3.4l0,0.2
		c0.9-1.1,7-6.7,8.1-8l-0.2,0.1c0.9-1.2,1-0.8,1.9-1.5c-0.4-0.2,0.3-1.2,0.6-1.6l0,0.1c0.5-0.6,1.4-2,2.2-2.8l0.1,0.2
		c0.5-0.9,1.9-2.1,2.4-2.6c1.2-1.1,3.3-2.6,4.6-4.4l1.4-0.6l0.1-0.2c0,0-3.8-7-7-6.1l-0.1-0.2l-0.4,0.4c-0.6,0.4-0.6,0.8-0.7,0.6
		l0.7-0.6c-0.5,0.4-0.3,0-0.2-0.3c-0.2,0.2-0.4,0.4-0.6,0.5c0,0.2,0.1,0,0.2,0c-0.2,0.3-0.4,0.8-0.8,1.1c-0.5,0.5-0.3-0.2-0.9,0.3
		c-3.2,2.9-6.3,5.7-9.4,8.9c-0.1,0,0-0.1,0-0.2c-0.9,1-1.7,1.8-2.5,2.7c-0.3,0.2-0.5,0.1-0.6,0.1c0.1,0-1,1.2-2.2,2.4
		c-0.6,0.6-1.2,1.2-1.7,1.7C58.7,33.9,58.3,34.2,58.3,34.2z"/>
</g>
</svg>
