<?xml version="1.0" encoding="utf-8"?>
<!-- Generator: Adobe Illustrator 21.0.0, SVG Export Plug-In . SVG Version: 6.00 Build 0)  -->
<svg version="1.1" id="Layer_1" xmlns="http://www.w3.org/2000/svg" xmlns:xlink="http://www.w3.org/1999/xlink" x="0px" y="0px"
	 viewBox="0 0 36.6 15.6" style="enable-background:new 0 0 36.6 15.6;" xml:space="preserve">
<style type="text/css">
	.st0{fill:#000003;}
</style>
<path class="st0" d="M27.2,2.3c-0.7,0.3-1.4,0.5-2.1,0.6c0.8-0.5,1.3-1.2,1.6-2c-0.7,0.4-1.5,0.7-2.3,0.9c-0.7-0.7-1.6-1.2-2.7-1.2
	c-2,0-3.7,1.6-3.7,3.7c0,0.3,0,0.6,0.1,0.8c-3-0.2-5.7-1.6-7.5-3.8c-0.3,0.5-0.5,1.2-0.5,1.8c0,1.3,0.6,2.4,1.6,3
	c-0.6,0-1.2-0.2-1.7-0.5v0c0,1.8,1.3,3.2,2.9,3.6c-0.3,0.1-0.6,0.1-1,0.1c-0.2,0-0.5,0-0.7-0.1c0.5,1.5,1.8,2.5,3.4,2.5
	c-1.3,1-2.8,1.6-4.5,1.6c-0.3,0-0.6,0-0.9-0.1c1.6,1,3.5,1.6,5.6,1.6c6.7,0,10.4-5.6,10.4-10.4l0-0.5C26.1,3.7,26.7,3,27.2,2.3"/>
</svg>
